<?xml version="1.0" standalone="no"?>
<!DOCTYPE svg PUBLIC "-//W3C//DTD SVG 20010904//EN"
 "http://www.w3.org/TR/2001/REC-SVG-20010904/DTD/svg10.dtd">
<svg version="1.0" xmlns="http://www.w3.org/2000/svg"
 width="512.000000pt" height="512.000000pt" viewBox="0 0 512.000000 512.000000"
 preserveAspectRatio="xMidYMid meet">
<metadata>
Created by potrace 1.10, written by Peter Selinger 2001-2011
</metadata>
<g transform="translate(0.000000,512.000000) scale(0.100000,-0.100000)"
fill="#000000" stroke="none">
<path d="M1315 5104 c-235 -51 -429 -238 -494 -474 -41 -146 -20 -340 48 -467
l30 -55 -29 -121 c-57 -237 -65 -321 -65 -672 1 -234 6 -365 19 -489 9 -92 16
-170 14 -172 -2 -2 -35 7 -74 21 -274 94 -509 65 -642 -80 -91 -100 -128 -212
-119 -365 18 -296 205 -638 517 -948 111 -110 309 -284 397 -349 29 -21 53
-41 53 -45 0 -5 -140 -8 -311 -8 l-311 0 -39 -39 c-33 -33 -39 -45 -39 -82 0
-56 30 -106 75 -125 29 -12 301 -14 1913 -14 l1879 0 34 23 c66 44 83 121 42
184 -34 51 -49 53 -378 53 -168 0 -305 4 -305 8 0 5 21 24 48 43 157 113 431
367 558 519 153 183 281 412 331 598 37 133 39 296 5 392 -27 78 -80 151 -147
202 -138 104 -369 115 -608 28 l-80 -30 7 58 c74 604 68 921 -28 1314 l-23 95
33 65 c47 93 66 177 67 288 1 185 -67 344 -203 473 -264 252 -664 247 -920
-13 l-65 -66 -261 1 -261 0 -47 52 c-148 164 -403 245 -621 197z m276 -274
c71 -27 145 -85 188 -149 71 -104 30 -95 459 -96 423 -1 417 -2 459 72 53 93
169 174 279 194 160 30 341 -65 417 -220 30 -61 32 -73 32 -166 0 -107 -16
-157 -78 -249 -34 -49 -34 -87 -2 -208 55 -210 77 -362 82 -575 24 -953 -335
-2019 -807 -2396 -137 -110 -299 -167 -429 -151 -239 29 -458 186 -642 462
-292 436 -465 1118 -486 1907 -8 309 18 531 93 788 29 98 27 127 -13 178 -14
19 -37 59 -51 89 -22 47 -26 69 -26 151 -1 90 1 99 37 171 91 186 299 270 488
198z m-926 -2401 c50 -17 122 -47 160 -68 l69 -37 51 -199 c59 -229 88 -321
157 -490 109 -265 249 -492 399 -649 49 -52 89 -97 89 -101 0 -4 -26 -5 -57
-3 -48 4 -76 15 -158 63 -347 200 -738 551 -922 825 -137 205 -210 425 -183
555 29 141 171 178 395 104z m3481 15 c179 -85 79 -476 -212 -824 -175 -210
-497 -485 -740 -633 -157 -96 -185 -107 -264 -107 -38 0 -70 3 -70 6 0 4 28
36 63 73 255 272 477 717 612 1226 l32 120 89 47 c94 50 212 94 292 108 63 12
156 4 198 -16z"/>
<path d="M1405 4580 c-38 -15 -67 -57 -72 -103 -16 -139 165 -203 237 -84 65
106 -49 236 -165 187z"/>
<path d="M2973 4571 c-111 -70 -62 -241 69 -241 111 0 169 143 90 223 -40 40
-111 48 -159 18z"/>
<path d="M2085 4054 c-204 -30 -427 -110 -608 -218 -119 -71 -139 -92 -144
-153 -5 -58 10 -89 56 -120 56 -38 92 -31 216 42 222 131 417 188 645 188 228
0 423 -57 645 -188 124 -73 160 -80 216 -42 46 31 61 62 56 120 -5 54 -21 76
-92 121 -157 100 -319 171 -497 216 -110 29 -141 32 -293 35 -93 2 -183 1
-200 -1z"/>
</g>
</svg>
